# xmcd
#
# Track frame offsets:
#	150
#	20166
#	37908
#	61392
#	80556
#	96235
#	112572
#	128169
#	145021
#	161039
#	182445
#	202626
#	221608
#	242541
#	261799
#
# Disc length: 3825 seconds
#
# Revision: 1
# Processed by: cddbd v1.5.2PL0 Copyright (c) Steve Scherf et al.
# Submitted via: EasyCDDAExtractor 6.5.0.1
#
DISCID=bf0eef0f
DTITLE=Tim McGraw - Two Lanes Of Freedom
DYEAR=2013
DGENRE=Country
TTITLE0=Two Lanes Of Freedom
TTITLE1=One Of Those Nights
TTITLE2=Friend Of A Friend
TTITLE3=Southern Girl
TTITLE4=Truck Yeah
TTITLE5=Nashville Without You
TTITLE6=Book Of John
TTITLE7=Annie I Owe You A Dance
TTITLE8=Mexicoma
TTITLE9=Number 37405
TTITLE10=It's Your World
TTITLE11=Tinted Windows
TTITLE12=Highway Don't Care
TTITLE13=Truck Yeah (Live)
TTITLE14=Let Me Love It Out Of You
EXTD=
EXTT0=
EXTT1=
EXTT2=
EXTT3=
EXTT4=
EXTT5=
EXTT6=
EXTT7=
EXTT8=
EXTT9=
EXTT10=
EXTT11=
EXTT12=
EXTT13=
EXTT14=
PLAYORDER=
